<svg version="1.2" xmlns="http://www.w3.org/2000/svg" viewBox="0 0 300 90" width="300" height="90"><style>.a{fill:#345cdd}</style><path class="a" d="m34.5 64.8c11.2 0 17.1-6.2 17.1-14.6 0-7-4.2-11.2-11.3-12.5l-4.7-0.8c-4.4-0.8-6.2-2.1-6.2-5.2 0-3.5 2.2-5.3 6.5-5.3 4 0 7.4 1.6 9.7 4.2l5.5-6.1c-3.2-3.6-8.4-5.9-15.3-5.9-10.1 0-16 5-16 13.5 0 6.6 3.4 11.5 11.4 12.8l4.6 0.8c4.4 0.7 6.1 2.2 6.1 5.3 0 3.8-2.5 6-7.1 6-4 0-8-1.7-11.2-5.3l-5.6 6.2c3.4 4.2 9.1 6.9 16.5 6.9zm47.4-33.8l-4.9 13.9-2.9 9.6h-0.5l-3-9.6-4.8-13.9h-10.2l13.3 32.8-2 5.6h-8v7.4h6.6c5.6 0 8.6-2.7 10.5-7.5l15.6-38.3zm15 33h9.5v-21.7c0-3.2 2.9-4.8 5.8-4.8 3.7 0 5.6 2.2 5.6 6.4v20.1h9.5v-21.4c0-8-4.5-12.4-10.8-12.4-5.3 0-8.2 3.1-9.7 6.8h-0.4v-6h-9.5zm54.8 0.7c7.4 0 11.8-3.2 14.2-8l-7.2-4.1c-1.4 2.7-3.3 4.6-6.9 4.6-4.5 0-6.9-2.7-6.9-7v-5.4c0-4.4 2.5-7.1 6.7-7.1 3.6 0 5.4 2 6.5 4.5l7.3-4c-2.3-4.8-6.5-8-13.8-8-10.3 0-16.6 6.6-16.6 17.3 0 10.7 6.3 17.2 16.7 17.2zm22-48.1v47.4h9.5v-21.7c0-3.2 2.9-4.8 5.8-4.8 3.7 0 5.6 2.2 5.6 6.4v20.1h9.5v-21.4c0-8-4.5-12.4-10.8-12.4-5.3 0-8.2 3.1-9.7 6.8h-0.4v-20.4zm39 40v7.4h27.9v-7.4h-10.8v-11.4c0-3.7 2.8-5.5 7.1-5.5h7v-8.7h-3.1c-6 0-9.2 4.2-10.6 8.5h-0.4v-8.5h-17.1v7.3h7.6v18.3zm64.8 7.4h5.5v-6.9h-3.7v-14.4c0-8.4-5.4-12.5-14.4-12.5-7.3 0-12.1 2.7-14.3 6.4l5.2 4.7c1.8-2.5 4.1-4.2 8-4.2 4.4 0 6 2 6 5.9v1.7h-5.3c-9.6 0-14.8 3.3-14.8 10.2 0 6.2 4.2 9.8 10.6 9.8 5.1 0 8.9-2.3 10.1-6.5h0.3c0.4 3.7 2.9 5.8 6.8 5.8zm-13.6-5.5c-3 0-4.9-1.2-4.9-3.5v-1.3c0-2.5 2-3.9 5.8-3.9h5v4c0 3.1-2.6 4.7-5.9 4.7z"/></svg>