<svg version="1.2" xmlns="http://www.w3.org/2000/svg" viewBox="0 0 300 90" width="300" height="90"><style>.a{fill:#006da0}</style><path class="a" d="m20.5 70.9c12.4 0 19-6.9 19-16.2 0-7.8-4.6-12.5-12.6-13.9l-5.2-0.9c-4.8-0.9-6.8-2.3-6.8-5.8 0-3.9 2.4-5.8 7.2-5.8 4.5 0 8.1 1.7 10.8 4.6l6-6.7c-3.5-4.1-9.3-6.6-16.9-6.6-11.2 0-17.8 5.5-17.8 15 0 7.3 3.8 12.8 12.6 14.2l5.2 0.9c4.8 0.8 6.7 2.4 6.7 5.9 0 4.2-2.8 6.6-7.8 6.6-4.4 0-8.9-1.9-12.5-5.8l-6.2 6.8c3.8 4.7 10.1 7.7 18.3 7.7zm38.1-0.9h10.6v-17.5l15.7-32.1h-11.4l-5.3 11.5-3.8 9.8h-0.6l-3.8-9.8-5.3-11.5h-11.8l15.7 32.1zm40.8-33l11.3 33h12.8v-49.6h-9.1v32.9h-0.8l-11.3-32.9h-12.8v49.6h9.1v-33zm50.9 33.8c10.2 0 15.5-5.6 17.5-14.3l-9.9-2.4c-1.1 4.7-2.9 8.1-7.9 8.1-5.7 0-7.9-4.8-7.9-12.7v-8.6c0-7.9 2.2-12.8 7.9-12.8 5 0 6.8 3.5 7.9 8.1l9.9-2.4c-2-8.6-7.3-14.2-17.5-14.2-13.3 0-19.6 9.3-19.6 25.6 0 16.2 6.3 25.6 19.6 25.6zm47.7-21.6v20.8h10.7v-49.6h-10.7v20.1h-12.5v-20.1h-10.8v49.6h10.8v-20.8zm30.9 20.8v-18.4h4.9l8.3 18.4h11.7l-9.8-19.8c5.6-1.6 8.8-7.1 8.8-14 0-9.6-5.5-15.8-15.2-15.8h-19.2v49.6zm6.1-26.7h-6.1v-14.3h6.1c5 0 6.7 1.8 6.7 6.1v2.1c0 4.4-1.7 6.1-6.7 6.1zm51.5 26.7h11.4l-13.5-49.6h-15l-13.4 49.6h10.8l3-12h13.6zm-9.6-39.2l4.8 18.7h-10.2l4.8-18.7z"/></svg>