<svg version="1.2" xmlns="http://www.w3.org/2000/svg" viewBox="0 0 715 214">
    <style>.a{fill:none;stroke:#3486eb;stroke-miterlimit:100;stroke-width:5}</style>
    <path fill-rule="evenodd" class="a" d="m713 2v210h-711v-210z" />
    <path
        fill="#3486eb"
        d="m118.2 115.2v43.8h22.6v-104.7h-22.6v42.5h-26.4v-42.5h-22.6v104.7h22.6v-43.8zm43.8 43.8h66.9v-18.4h-44.4v-25.4h42.9v-18.5h-42.9v-24h44.4v-18.4h-66.9zm89.3 0h67.5v-16.7h-22.5v-71.4l22.5 0.1v-16.7h-67.5v16.6h22.5v71.4h-22.5zm174.6-68.7v68.7h21.4v-104.7h-24.3l-25.4 49.1h-0.2l-25.7-49.1h-24.1v104.7h21.4v-69.7h0.5l7.9 16.5 20 36.9 20.4-37.1 7.6-15.3zm72.8 68.7v-38.8h10.3l17.5 38.8h24.6l-20.5-41.8c11.7-3.3 18.4-14.9 18.4-29.6 0-20.2-11.5-33.3-32.1-33.3h-40.5v104.7zm12.9-56.2h-12.9v-30.3h12.9c10.5 0 14.1 3.7 14.1 12.9v4.5c0 9.1-3.6 12.9-14.1 12.9zm108.8 56.2h24l-28.4-104.7h-31.8l-28.3 104.7h22.8l6.4-25.2h28.7zm-20.3-82.9l10.2 39.6h-21.6l10.2-39.6z" />
</svg>